<svg viewBox="0 0 512 512" xmlns="http://www.w3.org/2000/svg" role="img" aria-label="Planejamento de Safra">
  <defs>
    <linearGradient id="bg" x1="0" y1="0" x2="0" y2="1">
      <stop offset="0" stop-color="#4bb0bf"/>
      <stop offset="1" stop-color="#16404d"/>
    </linearGradient>
    <linearGradient id="leaf" x1="0" y1="0" x2="1" y2="1">
      <stop offset="0" stop-color="#ffffff"/>
      <stop offset="1" stop-color="#d8f0ec"/>
    </linearGradient>
  </defs>
  <rect width="512" height="512" rx="112" fill="url(#bg)"/>
  <!-- solo -->
  <rect x="176" y="392" width="160" height="26" rx="13" fill="#eaf6f4" opacity=".85"/>
  <!-- caule -->
  <path d="M256 400 C256 330 256 292 256 236" fill="none" stroke="#eaf6f4" stroke-width="26" stroke-linecap="round"/>
  <!-- folha esquerda -->
  <path d="M256 300 C198 306 150 276 128 214 C192 202 244 234 256 300 Z" fill="url(#leaf)"/>
  <path d="M256 300 C214 280 176 250 150 218" fill="none" stroke="#9fd6cf" stroke-width="8" stroke-linecap="round" opacity=".55"/>
  <!-- folha direita (mais alta) -->
  <path d="M256 262 C318 254 372 214 386 150 C318 146 268 186 256 262 Z" fill="url(#leaf)"/>
  <path d="M256 262 C300 236 344 202 372 168" fill="none" stroke="#9fd6cf" stroke-width="8" stroke-linecap="round" opacity=".55"/>
</svg>
